# xmcd
#
# Track frame offsets:
#	182
#	20247
#	35257
#	54650
#	71442
#	90460
#	106905
#	120422
#	141142
#	155525
#	174342
#	197030
#	212207
#	231692
#	249875
#	269905
#	286825
#	304455
#
# Disc length: 4337 seconds
#
# Revision: 1
# Processed by: cddbd v1.5.2PL0 Copyright (c) Steve Scherf et al.
# Submitted via: EasyCDDAExtractor 10.0.3.1
#
DISCID=0a10ef12
DTITLE=Various Artist - TWOJE PRZEBOJE
DYEAR=1900
DGENRE=
TTITLE0=KRZYSZTOF KRAWCZYK - Życia Mała Garść
TTITLE1=ANNA JANTAR and BOGUSŁAW MEC - Pozwolił Nam Los
TTITLE2=FELICJAN ANDRZEJCZAK - Trzeci Akt
TTITLE3=ANNA JANTAR - Wielka Dama Tańczy Sama
TTITLE4=KRZYSZTOF KRAWCZYK - To Co Dał Nam Świat
TTITLE5=ANNA JANTAR - Moje Jedyne Marzenie
TTITLE6=ANNA JANTAR - Tyle Śłońca W Całym mieście
TTITLE7=HALINA FRĄCKOWIAK - Tin Pan Alley
TTITLE8=ANNA JANTAR - My Baby Waits For Rainy Days
TTITLE9=IRENA JAROCKA - Beatlemania Story
TTITLE10=HALINA FRĄCKOWIAK - Anna Już Tu Nie Mieszka
TTITLE11=FELICJAN ANDRZEJCZAK - Siedem Nocy
TTITLE12=HALINA FRĄCKOWIAK - Papierowy Księżyc
TTITLE13=MONIKA BORYS - Nie Masz Prawa
TTITLE14=HALINA FRĄCKOWIAK - Serca Gwiazd
TTITLE15=ELENI - Muzyka Twoje Imię Ma
TTITLE16=MONIKA BORYS - Co Ty Królu Złoty
TTITLE17=NATALIA KUKULSKA - Głodne Lata
EXTD=
EXTT0=
EXTT1=
EXTT2=
EXTT3=
EXTT4=
EXTT5=
EXTT6=
EXTT7=
EXTT8=
EXTT9=
EXTT10=
EXTT11=
EXTT12=
EXTT13=
EXTT14=
EXTT15=
EXTT16=
EXTT17=
PLAYORDER=
